REM DIRINDEX 1\2,1\4,1\5,1\6,1\7,1\3\8,1\3\9,1\3\10
REM DIRNAME cjc113,folder01,folder02,folder03,folder04,folder05,folder06,folder07,folder08,folder09
TITLE ""
FILE "DB4500_5th_6C_23.mp3" MP3
  TRACK 01 AUDIO
    TITLE "7:cjc113_4207"
    INDEX 01 00:00:00
  TRACK 02 AUDIO
    TITLE "8:cjc113_4208"
    INDEX 01 00:02:08
  TRACK 03 AUDIO
    TITLE "0:"
    INDEX 01 00:03:19
  TRACK 04 AUDIO
    TITLE "9:cjc113_4209"
    INDEX 01 00:03:31
  TRACK 05 AUDIO
    TITLE "0:"
    INDEX 01 00:04:60
  TRACK 06 AUDIO
    TITLE "10:cjc113_4210"
    INDEX 01 00:04:68
  TRACK 07 AUDIO
    TITLE "0:"
    INDEX 01 00:08:42
  TRACK 08 AUDIO
    TITLE "8:cjc113_4211"
    INDEX 01 00:09:00
  TRACK 09 AUDIO
    TITLE "0:"
    INDEX 01 00:10:12
  TRACK 10 AUDIO
    TITLE "9:cjc113_4212"
    INDEX 01 00:10:18
  TRACK 11 AUDIO
    TITLE "0:"
    INDEX 01 00:11:44
  TRACK 12 AUDIO
    TITLE "10:cjc113_4213"
    INDEX 01 00:11:50
  TRACK 13 AUDIO
    TITLE "0:"
    INDEX 01 00:13:65
  TRACK 14 AUDIO
    TITLE "8:cjc113_4214"
    INDEX 01 00:14:23
  TRACK 15 AUDIO
    TITLE "0:"
    INDEX 01 00:15:42
  TRACK 16 AUDIO
    TITLE "9:cjc113_4215"
    INDEX 01 00:15:52
  TRACK 17 AUDIO
    TITLE "0:"
    INDEX 01 00:17:08
  TRACK 18 AUDIO
    TITLE "10:cjc113_4216"
    INDEX 01 00:17:18
  TRACK 19 AUDIO
    TITLE "0:"
    INDEX 01 00:19:73
  TRACK 20 AUDIO
    TITLE "8:cjc113_4217"
    INDEX 01 00:20:28
  TRACK 21 AUDIO
    TITLE "0:"
    INDEX 01 00:21:33
  TRACK 22 AUDIO
    TITLE "9:cjc113_4218"
    INDEX 01 00:21:43
  TRACK 23 AUDIO
    TITLE "0:"
    INDEX 01 00:22:68
  TRACK 24 AUDIO
    TITLE "10:cjc113_4219"
    INDEX 01 00:23:03
  TRACK 25 AUDIO
    TITLE "0:"
    INDEX 01 00:26:03
  TRACK 26 AUDIO
    TITLE "8:cjc113_4220"
    INDEX 01 00:26:34
  TRACK 27 AUDIO
    TITLE "0:"
    INDEX 01 00:27:57
  TRACK 28 AUDIO
    TITLE "9:cjc113_4221"
    INDEX 01 00:27:65
  TRACK 29 AUDIO
    TITLE "0:"
    INDEX 01 00:29:17
  TRACK 30 AUDIO
    TITLE "10:cjc113_4222"
    INDEX 01 00:29:25
  TRACK 31 AUDIO
    TITLE "0:"
    INDEX 01 00:33:03
  TRACK 32 AUDIO
    TITLE "8:cjc113_4223"
    INDEX 01 00:33:36
  TRACK 33 AUDIO
    TITLE "0:"
    INDEX 01 00:34:38
  TRACK 34 AUDIO
    TITLE "9:cjc113_4224"
    INDEX 01 00:34:47
  TRACK 35 AUDIO
    TITLE "0:"
    INDEX 01 00:36:21
  TRACK 36 AUDIO
    TITLE "10:cjc113_4225"
    INDEX 01 00:36:29
  TRACK 37 AUDIO
    TITLE "0:"
    INDEX 01 00:40:15
  TRACK 38 AUDIO
    TITLE "8:cjc113_4226"
    INDEX 01 00:40:48
  TRACK 39 AUDIO
    TITLE "0:"
    INDEX 01 00:41:53
  TRACK 40 AUDIO
    TITLE "9:cjc113_4227"
    INDEX 01 00:41:59
  TRACK 41 AUDIO
    TITLE "0:"
    INDEX 01 00:42:59
  TRACK 42 AUDIO
    TITLE "10:cjc113_4228"
    INDEX 01 00:42:66
  TRACK 43 AUDIO
    TITLE "0:"
    INDEX 01 00:47:28
  TRACK 44 AUDIO
    TITLE "8:cjc113_4229"
    INDEX 01 00:47:58
  TRACK 45 AUDIO
    TITLE "0:"
    INDEX 01 00:48:63
  TRACK 46 AUDIO
    TITLE "9:cjc113_4230"
    INDEX 01 00:48:71
  TRACK 47 AUDIO
    TITLE "0:"
    INDEX 01 00:49:65
  TRACK 48 AUDIO
    TITLE "10:cjc113_4231"
    INDEX 01 00:49:74
  TRACK 49 AUDIO
    TITLE "0:"
    INDEX 01 00:52:43
  TRACK 50 AUDIO
    TITLE "8:cjc113_4232"
    INDEX 01 00:53:00
  TRACK 51 AUDIO
    TITLE "0:"
    INDEX 01 00:54:03
  TRACK 52 AUDIO
    TITLE "9:cjc113_4233"
    INDEX 01 00:54:13
  TRACK 53 AUDIO
    TITLE "0:"
    INDEX 01 00:55:24
  TRACK 54 AUDIO
    TITLE "10:cjc113_4234"
    INDEX 01 00:55:30
  TRACK 55 AUDIO
    TITLE "0:"
    INDEX 01 00:58:62
  TRACK 56 AUDIO
    TITLE "8:cjc113_4235"
    INDEX 01 00:59:20
  TRACK 57 AUDIO
    TITLE "0:"
    INDEX 01 01:00:45
  TRACK 58 AUDIO
    TITLE "9:cjc113_4236"
    INDEX 01 01:00:55
  TRACK 59 AUDIO
    TITLE "0:"
    INDEX 01 01:01:66
  TRACK 60 AUDIO
    TITLE "10:cjc113_4237"
    INDEX 01 01:01:74
  TRACK 61 AUDIO
    TITLE "0:"
    INDEX 01 01:05:60
  TRACK 62 AUDIO
    TITLE "8:cjc113_4238"
    INDEX 01 01:06:14
  TRACK 63 AUDIO
    TITLE "0:"
    INDEX 01 01:07:45
  TRACK 64 AUDIO
    TITLE "9:cjc113_4239"
    INDEX 01 01:07:55
  TRACK 65 AUDIO
    TITLE "0:"
    INDEX 01 01:09:20
  TRACK 66 AUDIO
    TITLE "10:cjc113_4240"
    INDEX 01 01:09:30
  TRACK 67 AUDIO
    TITLE "0:"
    INDEX 01 01:14:35
  TRACK 68 AUDIO
    TITLE "8:cjc113_4241"
    INDEX 01 01:14:68
  TRACK 69 AUDIO
    TITLE "0:"
    INDEX 01 01:16:12
  TRACK 70 AUDIO
    TITLE "9:cjc113_4242"
    INDEX 01 01:16:20
  TRACK 71 AUDIO
    TITLE "0:"
    INDEX 01 01:17:30
  TRACK 72 AUDIO
    TITLE "10:cjc113_4243"
    INDEX 01 01:17:41
  TRACK 73 AUDIO
    TITLE "0:"
    INDEX 01 01:21:06
  TRACK 74 AUDIO
    TITLE "8:cjc113_4244"
    INDEX 01 01:21:37
  TRACK 75 AUDIO
    TITLE "0:"
    INDEX 01 01:22:60
  TRACK 76 AUDIO
    TITLE "9:cjc113_4245"
    INDEX 01 01:22:68
  TRACK 77 AUDIO
    TITLE "0:"
    INDEX 01 01:24:18
  TRACK 78 AUDIO
    TITLE "10:cjc113_4246"
    INDEX 01 01:24:36
  TRACK 79 AUDIO
    TITLE "0:"
    INDEX 01 01:28:39
  TRACK 80 AUDIO
    TITLE "8:cjc113_4247"
    INDEX 01 01:28:72
  TRACK 81 AUDIO
    TITLE "0:"
    INDEX 01 01:30:22
  TRACK 82 AUDIO
    TITLE "9:cjc113_4248"
    INDEX 01 01:30:26
  TRACK 83 AUDIO
    TITLE "0:"
    INDEX 01 01:31:47
  TRACK 84 AUDIO
    TITLE "10:cjc113_4249"
    INDEX 01 01:31:55
  TRACK 85 AUDIO
    TITLE "0:"
    INDEX 01 01:34:06
